<svg width="842" height="457" viewBox="0 0 842 457" fill="none" xmlns="http://www.w3.org/2000/svg">
<rect width="841.576" height="456.614" fill="white"/>
<path d="M450.323 21.4819H750.234V96.6043C727.698 114.711 707.954 136.573 691.003 162.192C674.245 187.811 660.858 215.355 650.842 244.826C641.018 274.298 633.698 304.443 628.883 335.262C624.26 366.082 621.948 397.768 621.948 430.321H515.332C515.332 365.793 527.468 303.191 551.738 242.515C576.201 181.647 606.924 135.417 643.907 103.828V102.383H450.323V21.4819Z" fill="black"/>
<path d="M192.597 188.771C218.793 163.923 251.346 151.499 290.256 151.499C317.801 151.499 342.36 157.663 363.933 169.99C385.7 182.126 402.361 198.691 413.919 219.687C425.476 240.682 431.255 264.182 431.255 290.186C431.255 335.645 416.712 371.954 387.626 399.114C358.733 426.273 319.823 439.853 270.897 439.853C244.701 439.853 221.201 436.001 200.398 428.296C179.787 420.591 162.837 410.286 149.546 397.38C136.255 384.474 125.179 368.968 116.319 350.862C107.458 332.755 101.198 313.879 97.538 294.231C93.8782 274.584 92.0483 253.684 92.0483 231.533C92.0483 159.493 107.747 104.884 139.144 67.7085C170.542 30.5325 213.207 11.9446 267.141 11.9446C306.243 11.9446 339.759 22.5388 367.69 43.7271C395.62 64.7228 412.859 91.7861 419.408 124.917H318.86C316.934 115.479 311.637 106.811 302.969 98.9131C294.493 91.0157 281.973 87.0669 265.408 87.0669C241.137 87.0669 223.031 96.1201 211.088 114.227C199.338 132.14 193.175 156.603 192.597 187.615V188.771ZM264.83 364.731C286.403 364.731 303.739 358.278 316.837 345.372C329.936 332.274 336.485 315.612 336.485 295.387C336.485 275.547 329.936 259.174 316.837 246.268C303.739 233.17 286.403 226.621 264.83 226.621C243.063 226.621 225.535 233.17 212.244 246.268C199.146 259.174 192.597 275.547 192.597 295.387C192.597 315.612 199.146 332.274 212.244 345.372C225.342 358.278 242.871 364.731 264.83 364.731Z" fill="black"/>
</svg>
