<svg width="842" height="457" viewBox="0 0 842 457" fill="none" xmlns="http://www.w3.org/2000/svg">
<rect width="841.576" height="456.614" fill="white"/>
<path d="M178.651 148.15H84.1704C84.1704 107.707 98.5207 74.9444 127.221 49.8618C155.922 24.5848 195.795 11.9463 246.839 11.9463C266.101 11.9463 284.4 14.474 301.736 19.5294C319.265 24.5848 334.771 31.779 348.254 41.1121C361.93 50.4451 372.814 62.4031 380.904 76.986C388.994 91.5689 393.039 107.707 393.039 125.401C393.039 165.067 373.295 195.107 333.808 215.523V216.982C381.193 232.148 404.885 265.98 404.885 318.479C404.885 344.922 398.047 367.769 384.371 387.018C370.887 406.073 352.492 420.364 329.185 429.892C305.878 439.225 279.007 443.892 248.573 443.892C191.364 443.892 147.639 430.475 117.398 403.643C87.3487 376.81 72.3242 338.409 72.3242 288.438H166.805C166.805 312.937 172.776 331.312 184.719 343.561C196.661 355.811 215.538 361.936 241.349 361.936C262.153 361.936 277.755 357.658 288.156 349.103C298.751 340.353 304.048 328.103 304.048 312.354C304.048 293.104 297.691 279.202 284.978 270.647C272.265 261.897 253.581 257.522 228.925 257.522H208.411V187.524H226.614C270.532 187.524 292.49 172.455 292.49 142.317C292.49 110.041 274.673 93.9021 239.038 93.9021C221.702 93.9021 207.256 98.3742 195.698 107.318C184.334 116.068 178.651 129.679 178.651 148.15Z" fill="black"/>
<path d="M668.393 265.105C642.197 290.188 609.644 302.729 570.734 302.729C543.189 302.729 518.63 296.604 497.057 284.355C475.483 271.911 458.918 255.189 447.36 234.19C435.803 212.996 430.024 189.274 430.024 163.025C430.024 117.138 444.471 80.4859 473.364 53.07C502.45 25.6542 541.456 11.9463 590.382 11.9463C616.578 11.9463 639.982 15.8351 660.592 23.6126C681.395 31.3901 698.442 41.7926 711.733 54.82C725.024 67.8474 736.1 83.4997 744.96 101.777C753.821 120.054 760.081 139.109 763.741 158.942C767.401 178.775 769.231 199.871 769.231 222.232C769.231 294.952 753.436 350.075 721.846 387.602C690.448 425.128 647.783 443.892 593.849 443.892C554.747 443.892 521.231 433.295 493.301 412.101C465.563 390.713 448.42 363.297 441.871 329.853H542.419C544.345 339.381 549.546 348.131 558.021 356.103C566.497 364.075 579.017 368.06 595.582 368.06C619.853 368.06 637.863 359.019 649.613 340.936C661.555 322.659 667.815 297.868 668.393 266.564V265.105ZM596.16 87.7773C574.587 87.7773 557.251 94.3882 544.153 107.61C531.247 120.637 524.794 137.359 524.794 157.775C524.794 177.802 531.247 194.33 544.153 207.357C557.251 220.384 574.587 226.898 596.16 226.898C617.927 226.898 635.359 220.384 648.457 207.357C661.748 194.33 668.393 177.802 668.393 157.775C668.393 137.359 661.844 120.637 648.746 107.61C635.648 94.3882 618.119 87.7773 596.16 87.7773Z" fill="black"/>
</svg>
