<svg width="842" height="457" viewBox="0 0 842 457" fill="none" xmlns="http://www.w3.org/2000/svg">
<rect y="0.000183105" width="841.576" height="456.614" fill="white"/>
<path d="M450.322 21.4836H750.234V96.606C727.697 114.712 707.953 136.575 691.003 162.194C674.245 187.812 660.857 215.357 650.841 244.828C641.017 274.299 633.698 304.444 628.882 335.264C624.259 366.083 621.948 397.769 621.948 430.323H515.332C515.332 365.794 527.467 303.192 551.737 242.517C576.2 181.648 606.923 135.419 643.907 103.829V102.385H450.322V21.4836Z" fill="black"/>
<path d="M192.597 188.776C218.793 163.928 251.346 151.504 290.256 151.504C317.801 151.504 342.36 157.668 363.933 169.996C385.7 182.131 402.361 198.696 413.919 219.692C425.476 240.688 431.255 264.188 431.255 290.192C431.255 335.65 416.712 371.959 387.626 399.119C358.733 426.279 319.823 439.858 270.897 439.858C244.701 439.858 221.201 436.006 200.398 428.301C179.787 420.596 162.837 410.291 149.546 397.385C136.255 384.48 125.179 368.974 116.319 350.867C107.458 332.761 101.198 313.884 97.538 294.237C93.8782 274.589 92.0483 253.69 92.0483 231.538C92.0483 159.498 107.747 104.89 139.144 67.7139C170.542 30.5379 213.207 11.95 267.141 11.95C306.243 11.95 339.759 22.5442 367.69 43.7325C395.62 64.7282 412.859 91.7915 419.408 124.922H318.86C316.934 115.484 311.637 106.816 302.969 98.9185C294.493 91.0211 281.973 87.0723 265.408 87.0723C241.137 87.0723 223.031 96.1255 211.088 114.232C199.338 132.146 193.175 156.609 192.597 187.621V188.776ZM264.83 364.736C286.403 364.736 303.739 358.283 316.837 345.378C329.936 332.279 336.485 315.618 336.485 295.392C336.485 275.552 329.936 259.18 316.837 246.274C303.739 233.176 286.403 226.627 264.83 226.627C243.063 226.627 225.535 233.176 212.244 246.274C199.146 259.18 192.597 275.552 192.597 295.392C192.597 315.618 199.146 332.279 212.244 345.378C225.342 358.283 242.871 364.736 264.83 364.736Z" fill="black"/>
</svg>
