<svg width="842" height="457" viewBox="0 0 842 457" fill="none" xmlns="http://www.w3.org/2000/svg">
<rect width="841.576" height="456.614" fill="white"/>
<path d="M178.651 148.149H84.1704C84.1704 107.706 98.5207 74.9428 127.221 49.8602C155.922 24.5832 195.795 11.9447 246.839 11.9447C266.101 11.9447 284.4 14.4724 301.736 19.5278C319.265 24.5832 334.771 31.7774 348.254 41.1105C361.93 50.4435 372.814 62.4015 380.904 76.9844C388.994 91.5673 393.039 107.706 393.039 125.4C393.039 165.065 373.295 195.106 333.808 215.522V216.98C381.193 232.146 404.885 265.979 404.885 318.477C404.885 344.921 398.047 367.767 384.371 387.017C370.887 406.072 352.492 420.363 329.185 429.89C305.878 439.223 279.007 443.89 248.573 443.89C191.364 443.89 147.639 430.474 117.398 403.641C87.3487 376.809 72.3242 338.407 72.3242 288.436H166.805C166.805 312.936 172.776 331.31 184.719 343.56C196.661 355.809 215.538 361.934 241.349 361.934C262.153 361.934 277.755 357.656 288.156 349.101C298.751 340.351 304.048 328.102 304.048 312.352C304.048 293.103 297.691 279.2 284.978 270.645C272.265 261.895 253.581 257.521 228.925 257.521H208.411V187.523H226.614C270.532 187.523 292.49 172.454 292.49 142.316C292.49 110.039 274.673 93.9006 239.038 93.9006C221.702 93.9006 207.256 98.3726 195.698 107.317C184.334 116.067 178.651 129.677 178.651 148.149Z" fill="black"/>
<path d="M668.393 265.104C642.197 290.186 609.644 302.728 570.734 302.728C543.189 302.728 518.63 296.603 497.057 284.353C475.483 271.909 458.918 255.187 447.36 234.188C435.803 212.994 430.024 189.273 430.024 163.023C430.024 117.136 444.471 80.4843 473.364 53.0685C502.45 25.6526 541.456 11.9447 590.382 11.9447C616.578 11.9447 639.982 15.8335 660.592 23.611C681.395 31.3886 698.442 41.791 711.733 54.8184C725.024 67.8458 736.1 83.4981 744.96 101.775C753.821 120.053 760.081 139.108 763.741 158.94C767.401 178.773 769.231 199.87 769.231 222.23C769.231 294.95 753.436 350.073 721.846 387.6C690.448 425.127 647.783 443.89 593.849 443.89C554.747 443.89 521.231 433.293 493.301 412.099C465.563 390.711 448.42 363.295 441.871 329.852H542.419C544.345 339.379 549.546 348.129 558.021 356.101C566.497 364.073 579.017 368.059 595.582 368.059C619.853 368.059 637.863 359.018 649.613 340.935C661.555 322.658 667.815 297.867 668.393 266.562V265.104ZM596.16 87.7757C574.587 87.7757 557.251 94.3866 544.153 107.608C531.247 120.636 524.794 137.358 524.794 157.774C524.794 177.801 531.247 194.328 544.153 207.355C557.251 220.383 574.587 226.897 596.16 226.897C617.927 226.897 635.359 220.383 648.457 207.355C661.748 194.328 668.393 177.801 668.393 157.774C668.393 137.358 661.844 120.636 648.746 107.608C635.648 94.3866 618.119 87.7757 596.16 87.7757Z" fill="black"/>
</svg>
