<svg width="842" height="457" viewBox="0 0 842 457" fill="none" xmlns="http://www.w3.org/2000/svg">
<rect width="841.576" height="456.614" fill="white"/>
<path d="M184.708 177.377H90.2268C90.2268 127.406 103.71 88.2264 130.677 59.8384C157.644 31.4504 197.998 17.2563 251.74 17.2563C296.428 17.2563 332.159 28.4366 358.934 50.797C385.708 73.1574 399.095 103.782 399.095 142.669C399.095 159.974 395.917 176.696 389.56 192.834C383.397 208.778 375.499 222.778 365.868 234.833C356.43 246.694 345.065 258.652 331.774 270.707C318.676 282.762 306.155 293.165 294.213 301.914C282.27 310.47 269.654 319.9 256.363 330.205C243.264 340.316 233.056 349.066 225.736 356.454V357.621H399.095V439.577H84.1592C84.1592 423.05 86.0854 407.592 89.9378 393.203C93.9829 378.62 99.5689 365.593 106.696 354.121C114.015 342.455 121.528 332.344 129.233 323.789C136.937 315.039 145.798 306.484 155.814 298.123C167.372 288.401 181.433 277.318 197.998 264.874C214.756 252.43 228.144 242.319 238.16 234.541C248.369 226.764 258.482 218.111 268.498 208.584C278.707 198.862 286.219 189.237 291.035 179.71C295.85 170.182 298.258 160.266 298.258 149.961C298.258 134.017 293.924 121.573 285.256 112.628C276.781 103.684 264.549 99.2122 248.562 99.2122C205.992 99.2122 184.708 125.267 184.708 177.377Z" fill="black"/>
<path d="M622.728 149.669C663.756 149.669 696.598 162.21 721.254 187.293C745.909 212.181 758.237 246.499 758.237 290.248C758.237 314.553 754.192 336.233 746.102 355.288C738.012 374.343 726.744 389.995 712.297 402.245C698.043 414.494 681.285 423.73 662.023 429.952C642.953 436.369 621.958 439.577 599.036 439.577C543.561 439.577 500.702 427.23 470.461 402.536C440.219 377.648 424.328 344.205 422.787 302.206H523.335C524.876 317.956 531.714 331.177 543.85 341.872C556.177 352.371 572.55 357.621 592.968 357.621C612.615 357.621 628.314 351.788 640.064 340.122C651.814 328.261 657.689 311.247 657.689 289.081C657.689 267.11 652.007 250.097 640.642 238.041C629.277 225.792 612.808 219.667 591.234 219.667C565.616 219.667 544.909 229.68 529.114 249.708H434.633L481.729 17.2563H740.323V98.9205H550.495L535.182 177.96V179.126C560.03 159.488 589.212 149.669 622.728 149.669Z" fill="black"/>
</svg>
